<svg xmlns="http://www.w3.org/2000/svg" viewBox="0 0 60 60"><defs><style>.cls-1{fill:#e8e8e8;}.cls-2{fill:#fff;}</style></defs><title>Asset 4</title><g id="Layer_2" data-name="Layer 2"><g id="Пользователь"><circle class="cls-1" cx="30" cy="30" r="30"/><path class="cls-2" d="M40.47,19.72c0,7-4.69,12.72-10.47,12.72S19.53,26.74,19.53,19.72,21.07,7,30,7,40.47,12.69,40.47,19.72ZM35.73,33.41S34,35.6,30,35.6s-5.73-2.19-5.73-2.19c-12.09,2.18-13.79,5.62-14,17.53,0,.29,0,.48,0,.63A29.88,29.88,0,0,0,30,59h0a29.88,29.88,0,0,0,19.75-7.43v-.23C49.56,39.1,48,35.61,35.73,33.41Z"/></g></g></svg>